# xmcd CD database file
#
# Track frame offsets:
#	150
#	17083
#	27810
#	42669
#	62531
#	78978
#	89661
#	105273
#	123236
#	141861
#	160577
#	179604
#	195968
#
# Disc length: 2863 seconds
#
# Revision: 2
# Processed by: cddbd v1.5.2PL0 Copyright (c) Steve Scherf et al.
# Submitted via: CDex 1.70beta2
#
DISCID=9f0b2d0d
DTITLE=Charlie Musselwhite - The Well
DYEAR=2010
DGENRE=Blues
TTITLE0=Rambler's Blues
TTITLE1=Dig The Pain
TTITLE2=The Well
TTITLE3=Where Hwy 61 Runs
TTITLE4=Sad And Beautiful World
TTITLE5=Sonny Payne Special
TTITLE6=Good Times
TTITLE7=Just You, Just Blues
TTITLE8=Cadillac Women
TTITLE9=Hoodoo Queen
TTITLE10=Clarksdale Getaway
TTITLE11=Cook County Blues
TTITLE12=Sorcerer's Dream
EXTD=YEAR: 2010
EXTT0=
EXTT1=
EXTT2=
EXTT3=
EXTT4=
EXTT5=
EXTT6=
EXTT7=
EXTT8=
EXTT9=
EXTT10=
EXTT11=
EXTT12=
PLAYORDER=
